<?xml version="1.0" standalone="no"?>
<!DOCTYPE svg PUBLIC "-//W3C//DTD SVG 20010904//EN"
 "http://www.w3.org/TR/2001/REC-SVG-20010904/DTD/svg10.dtd">
<svg version="1.0" xmlns="http://www.w3.org/2000/svg"
 width="41.000000pt" height="40.000000pt" viewBox="0 0 41.000000 40.000000"
 preserveAspectRatio="xMidYMid meet">
<metadata>
Created by potrace 1.10, written by Peter Selinger 2001-2011
</metadata>
<g transform="translate(0.000000,40.000000) scale(0.100000,-0.100000)"
fill="#000000" stroke="none">
<path d="M115 375 c-43 -24 -65 -45 -86 -87 -34 -67 -21 -163 30 -222 57 -65
198 -76 267 -20 52 42 74 88 74 154 0 67 -22 113 -73 154 -34 27 -48 31 -110
34 -52 2 -80 -2 -102 -13z m161 -24 c48 -22 80 -59 96 -112 21 -73 -21 -156
-96 -190 -54 -24 -90 -24 -144 2 -59 29 -94 84 -94 147 0 76 32 126 102 156
47 20 87 19 136 -3z"/>
<path d="M166 276 c-42 -74 -43 -80 -16 -71 19 6 20 2 20 -59 l0 -66 35 0 35
0 0 66 c0 61 1 65 20 59 11 -3 20 -2 20 4 0 10 -70 131 -75 131 -2 0 -19 -29
-39 -64z"/>
</g>
</svg>
